<svg width="32" height="32" viewBox="0 0 32 32" fill="none" xmlns="http://www.w3.org/2000/svg">
<path d="M5.99427 4.01056C11.3417 -1.33686 20.0116 -1.33685 25.359 4.01056C30.7064 9.35798 30.7064 18.0279 25.359 23.3753L25.1579 23.5765C24.3474 24.3873 19.7121 29.0239 17.7036 31.0323C17.3849 31.351 16.7306 31.0969 16.5883 30.6692C16.4383 30.2185 16.174 29.7095 15.711 29.2465C15.2419 28.7774 14.74 28.5003 14.2935 28.3373C13.8617 28.1796 13.588 27.4561 13.9131 27.131C16.0074 25.0372 20.769 20.2746 21.4027 19.6407L21.5135 19.5298C24.7371 16.3062 24.7371 11.0797 21.5135 7.85604C18.2899 4.63242 13.0634 4.63242 9.83975 7.85604C6.73139 10.9644 6.61032 15.9449 9.4964 19.1865C10.4238 20.2547 10.3748 21.8789 9.35906 22.8946C8.29717 23.9565 6.57549 23.9565 5.51359 22.8946C0.428937 17.8099 1.10168 8.90316 5.99427 4.01056Z" fill="url(#paint0_linear_24_21)"/>
<path d="M17.5307 31.2036C16.4688 32.2655 14.7471 32.2655 13.6852 31.2036C12.6233 30.1417 12.6233 28.42 13.6852 27.3581C14.7471 26.2962 16.4688 26.2962 17.5307 27.3581C18.5926 28.42 18.5926 30.1417 17.5307 31.2036Z" fill="#90CDF4"/>
<defs>
<linearGradient id="paint0_linear_24_21" x1="11.0245" y1="31.134" x2="3.50617" y2="0.180388" gradientUnits="userSpaceOnUse">
<stop stop-color="#75A9CB"/>
<stop offset="0.286458" stop-color="#5D5B9E"/>
<stop offset="0.739583" stop-color="#4E3D69"/>
<stop offset="1" stop-color="#1A202C"/>
</linearGradient>
</defs>
</svg>
