<svg width="877" height="458" viewBox="0 0 877 458" fill="none" xmlns="http://www.w3.org/2000/svg">
<path d="M51.3667 322.467V399H14.6516V266.619H49.643V289.975H51.1944C54.1247 282.276 59.0373 276.185 65.9322 271.704C72.827 267.164 81.187 264.895 91.0122 264.895C100.205 264.895 108.221 266.906 115.058 270.928C121.895 274.95 127.21 280.696 131.002 288.165C134.795 295.577 136.691 304.425 136.691 314.71V399H99.9756V321.26C100.033 313.159 97.9645 306.839 93.7702 302.3C89.5758 297.703 83.8013 295.405 76.4468 295.405C71.5055 295.405 67.1388 296.468 63.3466 298.594C59.6119 300.719 56.6815 303.822 54.5556 307.902C52.4872 311.924 51.4242 316.779 51.3667 322.467ZM248.107 311.952V341.083H167.61V311.952H248.107ZM317.142 401.499C308.696 401.499 301.169 400.034 294.562 397.104C287.954 394.116 282.725 389.721 278.876 383.917C275.084 378.057 273.188 370.76 273.188 362.026C273.188 354.672 274.538 348.495 277.238 343.496C279.939 338.498 283.616 334.476 288.27 331.43C292.924 328.385 298.21 326.087 304.128 324.535C310.104 322.984 316.367 321.892 322.917 321.26C330.616 320.456 336.821 319.709 341.533 319.02C346.244 318.273 349.663 317.181 351.789 315.744C353.915 314.308 354.978 312.182 354.978 309.367V308.85C354.978 303.391 353.254 299.168 349.807 296.18C346.417 293.193 341.59 291.699 335.327 291.699C328.72 291.699 323.463 293.164 319.555 296.094C315.648 298.967 313.063 302.587 311.799 306.954L277.842 304.196C279.565 296.152 282.955 289.199 288.011 283.339C293.068 277.421 299.589 272.881 307.576 269.721C315.62 266.504 324.928 264.895 335.5 264.895C342.854 264.895 349.893 265.757 356.615 267.48C363.395 269.204 369.4 271.876 374.628 275.496C379.914 279.116 384.08 283.77 387.125 289.458C390.17 295.089 391.693 301.84 391.693 309.711V399H356.874V380.642H355.84C353.714 384.779 350.87 388.428 347.307 391.588C343.745 394.691 339.464 397.133 334.466 398.914C329.467 400.638 323.692 401.499 317.142 401.499ZM327.657 376.161C333.058 376.161 337.827 375.098 341.964 372.972C346.101 370.789 349.347 367.858 351.703 364.181C354.059 360.504 355.236 356.338 355.236 351.684V337.636C354.087 338.383 352.507 339.072 350.496 339.704C348.543 340.279 346.331 340.825 343.86 341.342C341.389 341.801 338.919 342.232 336.448 342.634C333.977 342.979 331.736 343.295 329.725 343.583C325.416 344.215 321.653 345.22 318.435 346.599C315.217 347.978 312.718 349.845 310.937 352.201C309.156 354.499 308.265 357.372 308.265 360.82C308.265 365.818 310.075 369.639 313.695 372.282C317.372 374.868 322.026 376.161 327.657 376.161ZM530.323 304.368L496.71 306.436C496.136 303.564 494.901 300.978 493.004 298.68C491.108 296.324 488.609 294.457 485.506 293.078C482.461 291.641 478.812 290.923 474.561 290.923C468.872 290.923 464.075 292.13 460.168 294.543C456.261 296.899 454.307 300.059 454.307 304.023C454.307 307.183 455.571 309.855 458.099 312.039C460.627 314.222 464.965 315.974 471.113 317.296L495.073 322.122C507.943 324.765 517.539 329.017 523.859 334.878C530.179 340.738 533.339 348.438 533.339 357.976C533.339 366.652 530.783 374.265 525.669 380.815C520.613 387.365 513.66 392.479 504.812 396.156C496.021 399.776 485.88 401.586 474.388 401.586C456.864 401.586 442.902 397.937 432.502 390.64C422.16 383.285 416.098 373.288 414.317 360.647L450.429 358.751C451.52 364.095 454.163 368.174 458.358 370.99C462.552 373.748 467.924 375.127 474.474 375.127C480.91 375.127 486.081 373.891 489.988 371.421C493.952 368.892 495.963 365.646 496.021 361.682C495.963 358.349 494.556 355.62 491.798 353.494C489.04 351.311 484.788 349.644 479.042 348.495L456.117 343.927C443.189 341.342 433.565 336.86 427.245 330.482C420.982 324.105 417.85 315.974 417.85 306.092C417.85 297.588 420.149 290.262 424.745 284.114C429.399 277.966 435.921 273.226 444.309 269.894C452.756 266.561 462.638 264.895 473.957 264.895C490.677 264.895 503.835 268.428 513.43 275.496C523.083 282.563 528.714 292.187 530.323 304.368ZM589.726 360.906L589.813 316.865H595.156L637.56 266.619H679.704L622.736 333.154H614.031L589.726 360.906ZM556.459 399V222.491H593.174V399H556.459ZM639.197 399L600.241 341.342L624.718 315.4L682.204 399H639.197Z" fill="#1A202C"/>
<path d="M635.702 41.7021C690.766 -13.3619 780.042 -13.3619 835.106 41.7021C890.17 96.766 890.17 186.042 835.106 241.106L833.035 243.178C824.689 251.527 776.958 299.271 756.276 319.953C752.995 323.234 746.257 320.617 744.792 316.214C743.247 311.572 740.525 306.331 735.758 301.564C730.927 296.733 725.759 293.88 721.162 292.201C716.715 290.577 713.896 283.127 717.244 279.78C738.81 258.22 787.841 209.177 794.367 202.65L795.508 201.508C828.703 168.314 828.703 114.495 795.508 81.3C762.314 48.1055 708.495 48.1055 675.3 81.3C643.292 113.308 642.046 164.594 671.764 197.973C681.314 208.972 680.809 225.697 670.35 236.156C659.416 247.091 641.687 247.091 630.752 236.156C578.394 183.798 585.322 92.0825 635.702 41.7021Z" fill="url(#paint0_linear_24_25)"/>
<path d="M754.496 321.716C743.561 332.651 725.833 332.651 714.898 321.716C703.963 310.782 703.963 293.053 714.898 282.118C725.833 271.184 743.561 271.184 754.496 282.118C765.431 293.053 765.431 310.782 754.496 321.716Z" fill="#90CDF4"/>
<defs>
<linearGradient id="paint0_linear_24_25" x1="687.5" y1="321" x2="610.081" y2="2.26162" gradientUnits="userSpaceOnUse">
<stop stop-color="#75A9CB"/>
<stop offset="0.286458" stop-color="#5D5B9E"/>
<stop offset="0.739583" stop-color="#4E3D69"/>
<stop offset="1" stop-color="#1A202C"/>
</linearGradient>
</defs>
</svg>
